<?xml version="1.0" encoding="UTF-8" standalone="no"?>
<svg
   height="64"
   width="64"
   version="1.1"
   id="svg4"
   sodipodi:docname="format_bold_FILL1_wght700_GRAD0_opsz48.svg"
   viewBox="7 6 32 32"
   xmlns:inkscape="http://www.inkscape.org/namespaces/inkscape"
   xmlns:sodipodi="http://sodipodi.sourceforge.net/DTD/sodipodi-0.dtd"
   xmlns="http://www.w3.org/2000/svg"
   xmlns:svg="http://www.w3.org/2000/svg">
  <defs
     id="defs8" />
  <sodipodi:namedview
     id="namedview6"
     pagecolor="#ffffff"
     bordercolor="#000000"
     borderopacity="0.25"
     inkscape:showpageshadow="2"
     inkscape:pageopacity="0.0"
     inkscape:pagecheckerboard="0"
     inkscape:deskcolor="#d1d1d1"
     showgrid="false" />
  <path
     d="M 12.15,37.85 V 7.3 H 26.7 q 3.65,0 6.325,2.4 2.675,2.4 2.675,6 0,1.95 -1,3.65 -1,1.7 -2.75,2.5 V 22 q 2.2,0.8 3.45,2.775 1.25,1.975 1.25,4.375 0,3.75 -2.875,6.225 Q 30.9,37.85 27.05,37.85 Z m 6.15,-18.1 h 7.35 q 1.55,0 2.65,-1.075 1.1,-1.075 1.1,-2.625 0,-1.55 -1.1,-2.625 Q 27.2,12.35 25.65,12.35 H 18.3 Z m 0,13 h 7.75 q 1.7,0 2.925,-1.15 1.225,-1.15 1.225,-2.85 0,-1.7 -1.225,-2.875 Q 27.75,24.7 26.05,24.7 H 18.3 Z"
     id="path2"
     style="fill:#007bff;fill-opacity:1" />
</svg>
