<?xml version="1.0" encoding="UTF-8" standalone="no"?>
<svg
   height="64"
   width="64"
   fill="#007bff"
   version="1.1"
   id="svg74"
   viewBox="-1 -6 40 40"
   xmlns="http://www.w3.org/2000/svg"
   xmlns:svg="http://www.w3.org/2000/svg">
  <defs
     id="defs78" />
  <path
     d="m 26.1,30.2 q -0.75,0 -1.25,-0.5 -0.5,-0.5 -0.5,-1.25 V 3.5 h -8.6 Q 15,3.5 14.5,2.975 14,2.45 14,1.75 14,1 14.5,0.5 15,0 15.75,0 h 20.7 Q 37.2,0 37.7,0.5 38.2,1 38.2,1.75 38.2,2.5 37.7,3 37.2,3.5 36.45,3.5 h -8.6 v 24.95 q 0,0.75 -0.525,1.25 -0.525,0.5 -1.225,0.5 z m -18,0 q -0.75,0 -1.25,-0.5 -0.5,-0.5 -0.5,-1.25 V 13.5 H 1.75 Q 1,13.5 0.5,12.975 0,12.45 0,11.75 0,11 0.5,10.5 1,10 1.75,10 h 12.7 q 0.75,0 1.25,0.5 0.5,0.5 0.5,1.25 0,0.75 -0.5,1.25 -0.5,0.5 -1.25,0.5 H 9.85 V 28.45 Q 9.85,29.2 9.325,29.7 8.8,30.2 8.1,30.2 Z"
     id="path72" />
</svg>
