<svg xmlns="http://www.w3.org/2000/svg" version="1.2" viewBox="0 0 36 26">
  <path fill="#007bff" d="m29.012621 0 3.008677.03216C33.117497.04383 34 .93578 34 2.03204V6.999l1 .00098c.552285 0 1 .44772 1 1v10c0 .55229-.447715 1-1 1l-1-.00098V24c0 1.10457-.895431 2-2 2H4c-1.104569 0-2-.89543-2-2v-5.001l-1 .00098c-.552285 0-1-.44771-1-1v-10c0-.55228.447715-1 1-1L2 6.999V2.04929c0-1.10303.893028-1.99782 1.996056-2L28.987378 0h.025243ZM5 18.999H3.8V24c0 .11046.089543.2.2.2h28c.110457 0 .2-.08954.2-.2v-5.001H31V22c0 .55228-.447715 1-1 1H6c-.552285 0-1-.44772-1-1v-3.001Zm28.75-8.99901H2.25c-.138071 0-.25.11193-.25.25v5.5c0 .13807.111929.25.25.25h31.5c.138071 0 .25-.11193.25-.25v-5.5c0-.13807-.111929-.25-.25-.25Zm-4.756547-8.19998-24.993847.04928c-.110303.00022-.199606.0897-.199606.2V6.999H5V4.0507c0-.5513.446172-.9986.997466-1l19.989356-.05066.026356.00011 3.997466.04255c.548101.00583.989356.45181.989356.99994V6.999h1.2V2.03204c0-.10962-.08825-.19882-.19787-.19999l-3.008677-.03204Z" />
</svg>