<?xml version="1.0" standalone="no"?>
<!DOCTYPE svg PUBLIC "-//W3C//DTD SVG 20010904//EN"
 "http://www.w3.org/TR/2001/REC-SVG-20010904/DTD/svg10.dtd">
<svg version="1.0" xmlns="http://www.w3.org/2000/svg"
 width="64.000000pt" height="64.000000pt" viewBox="0 0 64.000000 64.000000"
 preserveAspectRatio="xMidYMid meet">

<g transform="translate(0.000000,64.000000) scale(0.100000,-0.100000)"
fill="#007bff" stroke="none">
<path d="M62 543 c3 -27 5 -28 58 -28 53 0 55 1 58 28 3 27 3 27 -58 27 -61 0
-61 0 -58 -27z"/>
<path d="M230 546 c0 -30 16 -36 90 -36 74 0 90 6 90 36 0 24 -2 24 -90 24
-88 0 -90 0 -90 -24z"/>
<path d="M452 543 c3 -27 5 -28 58 -28 53 0 55 1 58 28 3 27 3 27 -58 27 -61
0 -61 0 -58 -27z"/>
<path d="M40 426 c0 -30 16 -36 90 -36 74 0 90 6 90 36 0 24 -2 24 -90 24 -88
0 -90 0 -90 -24z"/>
<path d="M260 426 c0 -30 16 -36 90 -36 74 0 90 6 90 36 0 24 -2 24 -90 24
-88 0 -90 0 -90 -24z"/>
<path d="M482 423 c3 -27 5 -28 58 -28 53 0 55 1 58 28 3 27 3 27 -58 27 -61
0 -61 0 -58 -27z"/>
<path d="M62 303 c3 -27 5 -28 58 -28 53 0 55 1 58 28 3 27 3 27 -58 27 -61 0
-61 0 -58 -27z"/>
<path d="M230 306 c0 -30 16 -36 90 -36 74 0 90 6 90 36 0 24 -2 24 -90 24
-88 0 -90 0 -90 -24z"/>
<path d="M452 303 c3 -27 5 -28 58 -28 53 0 55 1 58 28 3 27 3 27 -58 27 -61
0 -61 0 -58 -27z"/>
<path d="M53 191 c-29 -26 -53 -52 -53 -58 0 -15 99 -103 115 -103 9 0 15 14
17 37 l3 38 185 0 185 0 3 -37 c2 -24 8 -38 17 -38 17 0 115 88 115 103 0 14
-104 107 -119 107 -6 0 -11 -18 -11 -40 l0 -40 -190 0 -190 0 0 40 c0 26 -5
40 -12 40 -7 -1 -37 -22 -65 -49z"/>
</g>
</svg>
